<svg xmlns="http://www.w3.org/2000/svg" viewBox="0 0 16 16" shape-rendering="crispEdges">
  <!-- Minecraft emerald gem: octagonal, dark outline, specular highlight -->
  <!-- Outline #1a3a24, Highlight #7df5a8, Base #50c878, Shadow #2d8a4e, Specular #ffffff -->
  <!-- Row 3: flat top outline -->
  <!-- Outer glow for background contrast -->
  <rect x="5" y="2" width="6" height="1" fill="#000000" fill-opacity="0.6"/>
  <rect x="4" y="3" width="2" height="1" fill="#000000" fill-opacity="0.6"/>
  <rect x="10" y="3" width="2" height="1" fill="#000000" fill-opacity="0.6"/>
  <rect x="3" y="4" width="2" height="1" fill="#000000" fill-opacity="0.6"/>
  <rect x="11" y="4" width="2" height="1" fill="#000000" fill-opacity="0.6"/>
  <rect x="2" y="5" width="2" height="1" fill="#000000" fill-opacity="0.6"/>
  <rect x="12" y="5" width="1" height="1" fill="#000000" fill-opacity="0.6"/>
  <rect x="2" y="6" width="1" height="1" fill="#000000" fill-opacity="0.6"/>
  <rect x="12" y="6" width="1" height="1" fill="#000000" fill-opacity="0.6"/>
  <rect x="2" y="7" width="1" height="1" fill="#000000" fill-opacity="0.6"/>
  <rect x="12" y="7" width="1" height="1" fill="#000000" fill-opacity="0.6"/>
  <rect x="2" y="8" width="1" height="1" fill="#000000" fill-opacity="0.6"/>
  <rect x="12" y="8" width="1" height="1" fill="#000000" fill-opacity="0.6"/>
  <rect x="2" y="9" width="2" height="1" fill="#000000" fill-opacity="0.6"/>
  <rect x="12" y="9" width="1" height="1" fill="#000000" fill-opacity="0.6"/>
  <rect x="3" y="10" width="2" height="1" fill="#000000" fill-opacity="0.6"/>
  <rect x="11" y="10" width="2" height="1" fill="#000000" fill-opacity="0.6"/>
  <rect x="4" y="11" width="2" height="1" fill="#000000" fill-opacity="0.6"/>
  <rect x="10" y="11" width="2" height="1" fill="#000000" fill-opacity="0.6"/>
  <rect x="5" y="12" width="6" height="1" fill="#000000" fill-opacity="0.6"/>
  <rect x="6" y="3" width="4" height="1" fill="#1a3a24"/>
  <!-- Row 4: outline + highlight facet -->
  <rect x="5" y="4" width="1" height="1" fill="#1a3a24"/>
  <rect x="6" y="4" width="1" height="1" fill="#ffffff"/>
  <rect x="7" y="4" width="1" height="1" fill="#7df5a8"/>
  <rect x="8" y="4" width="1" height="1" fill="#50c878"/>
  <rect x="9" y="4" width="1" height="1" fill="#2d8a4e"/>
  <rect x="10" y="4" width="1" height="1" fill="#1a3a24"/>
  <!-- Row 5 -->
  <rect x="4" y="5" width="1" height="1" fill="#1a3a24"/>
  <rect x="5" y="5" width="1" height="1" fill="#7df5a8"/>
  <rect x="6" y="5" width="1" height="1" fill="#7df5a8"/>
  <rect x="7" y="5" width="1" height="1" fill="#50c878"/>
  <rect x="8" y="5" width="1" height="1" fill="#50c878"/>
  <rect x="9" y="5" width="1" height="1" fill="#2d8a4e"/>
  <rect x="10" y="5" width="1" height="1" fill="#2d8a4e"/>
  <rect x="11" y="5" width="1" height="1" fill="#1a3a24"/>
  <!-- Row 6: upper body -->
  <rect x="3" y="6" width="1" height="1" fill="#1a3a24"/>
  <rect x="4" y="6" width="1" height="1" fill="#7df5a8"/>
  <rect x="5" y="6" width="1" height="1" fill="#50c878"/>
  <rect x="6" y="6" width="1" height="1" fill="#50c878"/>
  <rect x="7" y="6" width="1" height="1" fill="#50c878"/>
  <rect x="8" y="6" width="1" height="1" fill="#2d8a4e"/>
  <rect x="9" y="6" width="1" height="1" fill="#2d8a4e"/>
  <rect x="10" y="6" width="1" height="1" fill="#2d8a4e"/>
  <rect x="11" y="6" width="1" height="1" fill="#1a3a24"/>
  <!-- Row 7: center facet line (horizontal division) -->
  <rect x="3" y="7" width="1" height="1" fill="#1a3a24"/>
  <rect x="4" y="7" width="1" height="1" fill="#50c878"/>
  <rect x="5" y="7" width="1" height="1" fill="#1a3a24"/>
  <rect x="6" y="7" width="1" height="1" fill="#1a3a24"/>
  <rect x="7" y="7" width="1" height="1" fill="#1a3a24"/>
  <rect x="8" y="7" width="1" height="1" fill="#1a3a24"/>
  <rect x="9" y="7" width="1" height="1" fill="#1a3a24"/>
  <rect x="10" y="7" width="1" height="1" fill="#2d8a4e"/>
  <rect x="11" y="7" width="1" height="1" fill="#1a3a24"/>
  <!-- Row 8: lower body -->
  <rect x="3" y="8" width="1" height="1" fill="#1a3a24"/>
  <rect x="4" y="8" width="1" height="1" fill="#50c878"/>
  <rect x="5" y="8" width="1" height="1" fill="#50c878"/>
  <rect x="6" y="8" width="1" height="1" fill="#2d8a4e"/>
  <rect x="7" y="8" width="1" height="1" fill="#2d8a4e"/>
  <rect x="8" y="8" width="1" height="1" fill="#2d8a4e"/>
  <rect x="9" y="8" width="1" height="1" fill="#2d8a4e"/>
  <rect x="10" y="8" width="1" height="1" fill="#2d8a4e"/>
  <rect x="11" y="8" width="1" height="1" fill="#1a3a24"/>
  <!-- Row 9 -->
  <rect x="4" y="9" width="1" height="1" fill="#1a3a24"/>
  <rect x="5" y="9" width="1" height="1" fill="#50c878"/>
  <rect x="6" y="9" width="1" height="1" fill="#50c878"/>
  <rect x="7" y="9" width="1" height="1" fill="#2d8a4e"/>
  <rect x="8" y="9" width="1" height="1" fill="#2d8a4e"/>
  <rect x="9" y="9" width="1" height="1" fill="#2d8a4e"/>
  <rect x="10" y="9" width="1" height="1" fill="#2d8a4e"/>
  <rect x="11" y="9" width="1" height="1" fill="#1a3a24"/>
  <!-- Row 10 -->
  <rect x="5" y="10" width="1" height="1" fill="#1a3a24"/>
  <rect x="6" y="10" width="1" height="1" fill="#50c878"/>
  <rect x="7" y="10" width="1" height="1" fill="#2d8a4e"/>
  <rect x="8" y="10" width="1" height="1" fill="#2d8a4e"/>
  <rect x="9" y="10" width="1" height="1" fill="#2d8a4e"/>
  <rect x="10" y="10" width="1" height="1" fill="#1a3a24"/>
  <!-- Row 11: flat bottom outline -->
  <rect x="6" y="11" width="4" height="1" fill="#1a3a24"/>
</svg>
