<svg xmlns="http://www.w3.org/2000/svg" viewBox="0 0 16 16" shape-rendering="crispEdges">
  <!-- Minecraft raw cod: left-facing, dark outline, cream belly, specular -->
  <!-- Outline #1a3050, Highlight #90d0f8, Base #5b9bd5, Belly #c8dce8, Shadow #3868a0, Eye #1a1d2a, Specular #ffffff -->
  <!-- Dorsal fin -->
  <!-- Outer glow for background contrast -->
  <rect x="5" y="3" width="5" height="1" fill="#000000" fill-opacity="0.6"/>
  <rect x="3" y="4" width="3" height="1" fill="#000000" fill-opacity="0.6"/>
  <rect x="9" y="4" width="4" height="1" fill="#000000" fill-opacity="0.6"/>
  <rect x="2" y="5" width="2" height="1" fill="#000000" fill-opacity="0.6"/>
  <rect x="12" y="5" width="3" height="1" fill="#000000" fill-opacity="0.6"/>
  <rect x="1" y="6" width="2" height="1" fill="#000000" fill-opacity="0.6"/>
  <rect x="14" y="6" width="1" height="1" fill="#000000" fill-opacity="0.6"/>
  <rect x="1" y="7" width="1" height="1" fill="#000000" fill-opacity="0.6"/>
  <rect x="14" y="7" width="1" height="1" fill="#000000" fill-opacity="0.6"/>
  <rect x="1" y="8" width="1" height="1" fill="#000000" fill-opacity="0.6"/>
  <rect x="14" y="8" width="1" height="1" fill="#000000" fill-opacity="0.6"/>
  <rect x="1" y="9" width="2" height="1" fill="#000000" fill-opacity="0.6"/>
  <rect x="11" y="9" width="1" height="1" fill="#000000" fill-opacity="0.6"/>
  <rect x="14" y="9" width="1" height="1" fill="#000000" fill-opacity="0.6"/>
  <rect x="2" y="10" width="3" height="1" fill="#000000" fill-opacity="0.6"/>
  <rect x="9" y="10" width="2" height="1" fill="#000000" fill-opacity="0.6"/>
  <rect x="14" y="10" width="1" height="1" fill="#000000" fill-opacity="0.6"/>
  <rect x="4" y="11" width="9" height="1" fill="#000000" fill-opacity="0.6"/>
  <rect x="14" y="11" width="1" height="1" fill="#000000" fill-opacity="0.6"/>
  <rect x="12" y="12" width="3" height="1" fill="#000000" fill-opacity="0.6"/>
  <rect x="6" y="4" width="1" height="1" fill="#1a3050"/>
  <rect x="7" y="4" width="1" height="1" fill="#1a3050"/>
  <rect x="8" y="4" width="1" height="1" fill="#1a3050"/>
  <!-- Row 5: top outline + dorsal -->
  <rect x="4" y="5" width="1" height="1" fill="#1a3050"/>
  <rect x="5" y="5" width="1" height="1" fill="#1a3050"/>
  <rect x="6" y="5" width="1" height="1" fill="#90d0f8"/>
  <rect x="7" y="5" width="1" height="1" fill="#5b9bd5"/>
  <rect x="8" y="5" width="1" height="1" fill="#5b9bd5"/>
  <rect x="9" y="5" width="1" height="1" fill="#1a3050"/>
  <rect x="10" y="5" width="1" height="1" fill="#1a3050"/>
  <rect x="11" y="5" width="1" height="1" fill="#1a3050"/>
  <!-- Row 6: head + body -->
  <rect x="3" y="6" width="1" height="1" fill="#1a3050"/>
  <rect x="4" y="6" width="1" height="1" fill="#ffffff"/>
  <rect x="5" y="6" width="1" height="1" fill="#90d0f8"/>
  <rect x="6" y="6" width="1" height="1" fill="#90d0f8"/>
  <rect x="7" y="6" width="1" height="1" fill="#5b9bd5"/>
  <rect x="8" y="6" width="1" height="1" fill="#5b9bd5"/>
  <rect x="9" y="6" width="1" height="1" fill="#5b9bd5"/>
  <rect x="10" y="6" width="1" height="1" fill="#3868a0"/>
  <rect x="11" y="6" width="1" height="1" fill="#1a3050"/>
  <!-- Row 7: eye row + body -->
  <rect x="2" y="7" width="1" height="1" fill="#1a3050"/>
  <rect x="3" y="7" width="1" height="1" fill="#90d0f8"/>
  <rect x="4" y="7" width="1" height="1" fill="#1a1d2a"/>
  <rect x="5" y="7" width="1" height="1" fill="#5b9bd5"/>
  <rect x="6" y="7" width="1" height="1" fill="#5b9bd5"/>
  <rect x="7" y="7" width="1" height="1" fill="#5b9bd5"/>
  <rect x="8" y="7" width="1" height="1" fill="#3868a0"/>
  <rect x="9" y="7" width="1" height="1" fill="#3868a0"/>
  <rect x="10" y="7" width="1" height="1" fill="#3868a0"/>
  <rect x="11" y="7" width="1" height="1" fill="#1a3050"/>
  <rect x="12" y="7" width="1" height="1" fill="#1a3050"/>
  <!-- Row 8: belly stripe + tail connects -->
  <rect x="2" y="8" width="1" height="1" fill="#1a3050"/>
  <rect x="3" y="8" width="1" height="1" fill="#c8dce8"/>
  <rect x="4" y="8" width="1" height="1" fill="#c8dce8"/>
  <rect x="5" y="8" width="1" height="1" fill="#c8dce8"/>
  <rect x="6" y="8" width="1" height="1" fill="#c8dce8"/>
  <rect x="7" y="8" width="1" height="1" fill="#5b9bd5"/>
  <rect x="8" y="8" width="1" height="1" fill="#5b9bd5"/>
  <rect x="9" y="8" width="1" height="1" fill="#3868a0"/>
  <rect x="10" y="8" width="1" height="1" fill="#3868a0"/>
  <rect x="11" y="8" width="1" height="1" fill="#1a3050"/>
  <rect x="12" y="8" width="1" height="1" fill="#1a3050"/>
  <!-- Row 9: bottom body + tail -->
  <rect x="3" y="9" width="1" height="1" fill="#1a3050"/>
  <rect x="4" y="9" width="1" height="1" fill="#1a3050"/>
  <rect x="5" y="9" width="1" height="1" fill="#5b9bd5"/>
  <rect x="6" y="9" width="1" height="1" fill="#3868a0"/>
  <rect x="7" y="9" width="1" height="1" fill="#3868a0"/>
  <rect x="8" y="9" width="1" height="1" fill="#3868a0"/>
  <rect x="9" y="9" width="1" height="1" fill="#1a3050"/>
  <rect x="10" y="9" width="1" height="1" fill="#1a3050"/>
  <rect x="12" y="9" width="1" height="1" fill="#1a3050"/>
  <rect x="13" y="9" width="1" height="1" fill="#1a3050"/>
  <!-- Row 10: bottom outline + tail fin -->
  <rect x="5" y="10" width="1" height="1" fill="#1a3050"/>
  <rect x="6" y="10" width="1" height="1" fill="#1a3050"/>
  <rect x="7" y="10" width="1" height="1" fill="#1a3050"/>
  <rect x="8" y="10" width="1" height="1" fill="#1a3050"/>
  <rect x="11" y="10" width="1" height="1" fill="#1a3050"/>
  <rect x="12" y="10" width="1" height="1" fill="#3868a0"/>
  <rect x="13" y="10" width="1" height="1" fill="#1a3050"/>
  <!-- Tail fin -->
  <rect x="11" y="7" width="1" height="1" fill="#1a3050"/>
  <rect x="12" y="6" width="1" height="1" fill="#1a3050"/>
  <rect x="13" y="6" width="1" height="1" fill="#1a3050"/>
  <rect x="13" y="7" width="1" height="1" fill="#3868a0"/>
  <rect x="13" y="8" width="1" height="1" fill="#3868a0"/>
  <rect x="13" y="11" width="1" height="1" fill="#1a3050"/>
</svg>
