<svg xmlns="http://www.w3.org/2000/svg" viewBox="0 0 16 16" shape-rendering="crispEdges">
  <!-- Minecraft ore chunk: chunky rock, dark outline, gold speckles, specular -->
  <!-- Outline #4a4a4a, Highlight #d8d8d8, Base #a0a0a0, Shadow #707070, Speckles #d4a848, Specular #ffffff -->
  <!-- Row 3: jagged top outline -->
  <!-- Outer glow for background contrast -->
  <rect x="4" y="2" width="7" height="1" fill="#000000" fill-opacity="0.6"/>
  <rect x="3" y="3" width="2" height="1" fill="#000000" fill-opacity="0.6"/>
  <rect x="6" y="3" width="2" height="1" fill="#000000" fill-opacity="0.6"/>
  <rect x="10" y="3" width="2" height="1" fill="#000000" fill-opacity="0.6"/>
  <rect x="2" y="4" width="2" height="1" fill="#000000" fill-opacity="0.6"/>
  <rect x="11" y="4" width="2" height="1" fill="#000000" fill-opacity="0.6"/>
  <rect x="2" y="5" width="1" height="1" fill="#000000" fill-opacity="0.6"/>
  <rect x="12" y="5" width="2" height="1" fill="#000000" fill-opacity="0.6"/>
  <rect x="2" y="6" width="1" height="1" fill="#000000" fill-opacity="0.6"/>
  <rect x="13" y="6" width="1" height="1" fill="#000000" fill-opacity="0.6"/>
  <rect x="2" y="7" width="1" height="1" fill="#000000" fill-opacity="0.6"/>
  <rect x="13" y="7" width="1" height="1" fill="#000000" fill-opacity="0.6"/>
  <rect x="2" y="8" width="1" height="1" fill="#000000" fill-opacity="0.6"/>
  <rect x="13" y="8" width="1" height="1" fill="#000000" fill-opacity="0.6"/>
  <rect x="2" y="9" width="1" height="1" fill="#000000" fill-opacity="0.6"/>
  <rect x="13" y="9" width="1" height="1" fill="#000000" fill-opacity="0.6"/>
  <rect x="2" y="10" width="2" height="1" fill="#000000" fill-opacity="0.6"/>
  <rect x="12" y="10" width="2" height="1" fill="#000000" fill-opacity="0.6"/>
  <rect x="3" y="11" width="2" height="1" fill="#000000" fill-opacity="0.6"/>
  <rect x="11" y="11" width="2" height="1" fill="#000000" fill-opacity="0.6"/>
  <rect x="4" y="12" width="8" height="1" fill="#000000" fill-opacity="0.6"/>
  <rect x="5" y="3" width="1" height="1" fill="#4a4a4a"/>
  <rect x="8" y="3" width="2" height="1" fill="#4a4a4a"/>
  <!-- Row 4 -->
  <rect x="4" y="4" width="1" height="1" fill="#4a4a4a"/>
  <rect x="5" y="4" width="1" height="1" fill="#ffffff"/>
  <rect x="6" y="4" width="1" height="1" fill="#d8d8d8"/>
  <rect x="7" y="4" width="1" height="1" fill="#4a4a4a"/>
  <rect x="8" y="4" width="1" height="1" fill="#d8d8d8"/>
  <rect x="9" y="4" width="1" height="1" fill="#a0a0a0"/>
  <rect x="10" y="4" width="1" height="1" fill="#4a4a4a"/>
  <!-- Row 5 -->
  <rect x="3" y="5" width="1" height="1" fill="#4a4a4a"/>
  <rect x="4" y="5" width="1" height="1" fill="#d8d8d8"/>
  <rect x="5" y="5" width="1" height="1" fill="#d4a848"/>
  <rect x="6" y="5" width="1" height="1" fill="#a0a0a0"/>
  <rect x="7" y="5" width="1" height="1" fill="#d8d8d8"/>
  <rect x="8" y="5" width="1" height="1" fill="#a0a0a0"/>
  <rect x="9" y="5" width="1" height="1" fill="#d4a848"/>
  <rect x="10" y="5" width="1" height="1" fill="#a0a0a0"/>
  <rect x="11" y="5" width="1" height="1" fill="#4a4a4a"/>
  <!-- Row 6 -->
  <rect x="3" y="6" width="1" height="1" fill="#4a4a4a"/>
  <rect x="4" y="6" width="1" height="1" fill="#a0a0a0"/>
  <rect x="5" y="6" width="1" height="1" fill="#a0a0a0"/>
  <rect x="6" y="6" width="1" height="1" fill="#d4a848"/>
  <rect x="7" y="6" width="1" height="1" fill="#a0a0a0"/>
  <rect x="8" y="6" width="1" height="1" fill="#a0a0a0"/>
  <rect x="9" y="6" width="1" height="1" fill="#707070"/>
  <rect x="10" y="6" width="1" height="1" fill="#a0a0a0"/>
  <rect x="11" y="6" width="1" height="1" fill="#707070"/>
  <rect x="12" y="6" width="1" height="1" fill="#4a4a4a"/>
  <!-- Row 7 -->
  <rect x="3" y="7" width="1" height="1" fill="#4a4a4a"/>
  <rect x="4" y="7" width="1" height="1" fill="#a0a0a0"/>
  <rect x="5" y="7" width="1" height="1" fill="#707070"/>
  <rect x="6" y="7" width="1" height="1" fill="#a0a0a0"/>
  <rect x="7" y="7" width="1" height="1" fill="#d4a848"/>
  <rect x="8" y="7" width="1" height="1" fill="#a0a0a0"/>
  <rect x="9" y="7" width="1" height="1" fill="#a0a0a0"/>
  <rect x="10" y="7" width="1" height="1" fill="#707070"/>
  <rect x="11" y="7" width="1" height="1" fill="#707070"/>
  <rect x="12" y="7" width="1" height="1" fill="#4a4a4a"/>
  <!-- Row 8 -->
  <rect x="3" y="8" width="1" height="1" fill="#4a4a4a"/>
  <rect x="4" y="8" width="1" height="1" fill="#707070"/>
  <rect x="5" y="8" width="1" height="1" fill="#a0a0a0"/>
  <rect x="6" y="8" width="1" height="1" fill="#a0a0a0"/>
  <rect x="7" y="8" width="1" height="1" fill="#707070"/>
  <rect x="8" y="8" width="1" height="1" fill="#d4a848"/>
  <rect x="9" y="8" width="1" height="1" fill="#a0a0a0"/>
  <rect x="10" y="8" width="1" height="1" fill="#707070"/>
  <rect x="11" y="8" width="1" height="1" fill="#707070"/>
  <rect x="12" y="8" width="1" height="1" fill="#4a4a4a"/>
  <!-- Row 9 -->
  <rect x="3" y="9" width="1" height="1" fill="#4a4a4a"/>
  <rect x="4" y="9" width="1" height="1" fill="#707070"/>
  <rect x="5" y="9" width="1" height="1" fill="#707070"/>
  <rect x="6" y="9" width="1" height="1" fill="#d4a848"/>
  <rect x="7" y="9" width="1" height="1" fill="#707070"/>
  <rect x="8" y="9" width="1" height="1" fill="#707070"/>
  <rect x="9" y="9" width="1" height="1" fill="#a0a0a0"/>
  <rect x="10" y="9" width="1" height="1" fill="#707070"/>
  <rect x="11" y="9" width="1" height="1" fill="#707070"/>
  <rect x="12" y="9" width="1" height="1" fill="#4a4a4a"/>
  <!-- Row 10 -->
  <rect x="4" y="10" width="1" height="1" fill="#4a4a4a"/>
  <rect x="5" y="10" width="1" height="1" fill="#707070"/>
  <rect x="6" y="10" width="1" height="1" fill="#707070"/>
  <rect x="7" y="10" width="1" height="1" fill="#707070"/>
  <rect x="8" y="10" width="1" height="1" fill="#707070"/>
  <rect x="9" y="10" width="1" height="1" fill="#d4a848"/>
  <rect x="10" y="10" width="1" height="1" fill="#707070"/>
  <rect x="11" y="10" width="1" height="1" fill="#4a4a4a"/>
  <!-- Row 11: bottom outline -->
  <rect x="5" y="11" width="6" height="1" fill="#4a4a4a"/>
</svg>
